<?xml version="1.0" standalone="no"?>
<!DOCTYPE svg PUBLIC "-//W3C//DTD SVG 20010904//EN"
 "http://www.w3.org/TR/2001/REC-SVG-20010904/DTD/svg10.dtd">
<svg version="1.0" xmlns="http://www.w3.org/2000/svg"
 width="2702.000000pt" height="2702.000000pt" viewBox="0 0 2702.000000 2702.000000"
 preserveAspectRatio="xMidYMid meet">
<metadata>
Created by potrace 1.11, written by Peter Selinger 2001-2013
</metadata>
<g transform="translate(0.000000,2702.000000) scale(0.100000,-0.100000)"
fill="#000000" stroke="none">
<path d="M13029 27016 c-2 -2 -71 -7 -154 -10 -145 -6 -199 -9 -370 -21 -80
-5 -130 -10 -235 -20 -30 -2 -82 -7 -115 -10 -33 -3 -76 -8 -95 -10 -19 -2
-60 -7 -90 -10 -30 -3 -73 -8 -95 -11 -22 -3 -57 -7 -77 -9 -21 -3 -57 -7 -80
-10 -43 -5 -110 -15 -138 -20 -8 -1 -40 -6 -70 -10 -30 -4 -64 -9 -75 -11 -11
-3 -38 -7 -60 -9 -22 -3 -51 -7 -65 -10 -14 -3 -41 -7 -60 -10 -19 -3 -46 -8
-60 -10 -50 -10 -75 -15 -114 -21 -32 -4 -200 -38 -451 -89 -18 -4 -63 -14
-330 -76 -63 -14 -438 -114 -505 -134 -8 -2 -31 -9 -50 -14 -204 -54 -787
-248 -1045 -348 -145 -56 -505 -203 -573 -234 -35 -16 -65 -29 -67 -29 -4 0
-38 -15 -220 -101 -38 -18 -72 -33 -75 -33 -22 -4 -592 -294 -745 -381 -27
-15 -79 -43 -115 -63 -36 -19 -77 -43 -92 -53 -14 -11 -29 -19 -32 -19 -8 0
-132 -75 -364 -219 -111 -69 -210 -131 -220 -136 -23 -14 -286 -189 -292 -195
-3 -3 -41 -30 -85 -59 -190 -129 -850 -628 -885 -670 -3 -4 -43 -38 -90 -76
-47 -38 -87 -72 -90 -75 -3 -3 -57 -50 -120 -105 -63 -55 -117 -102 -120 -105
-3 -3 -57 -53 -120 -110 -331 -302 -744 -722 -1021 -1040 -40 -47 -86 -98
-100 -115 -47 -54 -114 -132 -133 -156 -11 -13 -31 -38 -45 -55 -105 -123
-276 -341 -417 -529 -107 -142 -167 -225 -299 -414 -67 -97 -197 -293 -272
-411 -40 -63 -76 -120 -80 -126 -5 -5 -15 -21 -22 -35 -8 -13 -58 -96 -111
-184 -211 -350 -493 -885 -660 -1250 -126 -277 -373 -874 -380 -920 -1 -3 -8
-22 -17 -42 -79 -189 -287 -840 -377 -1183 -44 -170 -94 -367 -99 -400 -3 -14
-12 -52 -20 -85 -14 -53 -67 -302 -81 -381 -3 -16 -8 -40 -11 -54 -20 -102
-78 -431 -90 -520 -2 -14 -8 -54 -14 -90 -5 -36 -13 -90 -16 -120 -3 -30 -8
-62 -10 -70 -2 -8 -7 -42 -10 -74 -3 -33 -8 -73 -10 -90 -12 -86 -26 -219 -40
-381 -3 -33 -7 -82 -10 -110 -8 -90 -20 -282 -32 -500 -16 -285 -7 -1350 12
-1490 2 -16 7 -77 10 -135 3 -58 7 -118 9 -135 2 -16 7 -70 11 -118 3 -48 8
-96 10 -105 1 -9 6 -52 9 -94 4 -42 8 -85 10 -95 2 -10 7 -49 11 -86 3 -37 8
-76 10 -85 1 -9 6 -45 10 -79 9 -76 12 -99 18 -138 8 -48 18 -108 22 -140 13
-101 74 -450 105 -601 6 -28 13 -64 16 -80 22 -123 107 -484 171 -724 207
-780 451 -1458 809 -2240 145 -319 426 -845 636 -1195 62 -104 120 -200 128
-214 17 -29 19 -31 115 -181 260 -402 496 -731 799 -1110 116 -145 405 -492
425 -510 3 -3 44 -48 91 -100 315 -353 646 -682 1085 -1081 98 -90 368 -318
522 -441 197 -158 511 -398 520 -398 4 0 16 -8 27 -19 12 -10 46 -36 76 -57
30 -21 102 -71 160 -111 58 -40 112 -78 120 -83 8 -6 55 -37 104 -70 48 -33
90 -60 92 -60 2 0 44 -27 93 -60 50 -33 101 -65 116 -72 14 -6 25 -15 25 -20
0 -4 4 -8 9 -8 5 0 45 -22 88 -49 81 -50 335 -199 413 -243 245 -136 355 -193
635 -332 593 -294 1190 -536 1840 -746 72 -23 144 -46 160 -50 17 -5 93 -27
170 -50 139 -41 460 -128 497 -135 11 -2 28 -7 38 -10 10 -3 27 -8 37 -10 10
-2 106 -24 213 -48 168 -39 293 -66 390 -83 14 -2 36 -7 50 -10 44 -10 64 -14
100 -20 19 -3 69 -11 110 -19 123 -22 328 -55 440 -70 53 -7 180 -24 228 -30
18 -3 54 -7 80 -10 26 -3 63 -7 82 -10 47 -6 157 -17 305 -30 33 -3 80 -8 105
-10 25 -2 90 -7 145 -10 55 -4 120 -8 145 -10 314 -27 1311 -27 1670 -1 25 2
95 7 155 10 61 4 126 9 145 11 19 2 67 7 105 10 39 3 88 7 110 10 22 2 67 7
100 10 61 6 283 32 339 40 17 2 96 14 176 25 80 12 161 24 180 26 19 3 123 21
230 40 107 19 206 37 220 39 78 12 641 138 800 180 489 128 916 263 1375 435
210 79 576 228 705 288 36 16 117 53 180 82 145 66 501 241 645 318 174 92
289 154 300 162 6 4 30 19 55 32 533 296 1210 753 1733 1170 149 120 387 315
397 327 3 3 37 33 75 66 72 60 91 78 280 250 117 105 666 652 775 770 70 76
202 223 233 258 10 12 31 36 45 52 59 67 201 235 262 310 36 44 67 82 70 85
32 32 319 407 454 593 195 269 551 812 642 977 10 19 22 37 25 40 7 7 154 265
227 400 117 217 164 308 261 505 443 897 792 1868 1017 2822 46 199 121 554
139 663 3 19 8 42 10 50 2 8 6 33 9 55 4 22 10 63 15 90 5 28 17 97 26 155 9
58 18 116 20 130 3 14 7 50 11 80 3 30 8 57 9 60 2 3 6 37 10 75 4 39 9 79 11
90 2 11 7 45 10 75 3 30 7 66 9 80 3 14 7 57 11 95 7 78 10 112 18 200 10 101
15 159 22 261 3 55 7 117 9 139 27 320 27 1412 1 1820 -3 39 -7 119 -11 180
-3 60 -7 136 -10 170 -3 33 -8 89 -11 125 -2 36 -7 88 -9 115 -2 28 -7 82 -10
120 -4 39 -8 88 -11 110 -2 22 -6 66 -9 98 -2 31 -7 67 -9 80 -3 12 -8 51 -11
87 -3 36 -8 79 -10 95 -2 17 -7 53 -10 80 -3 28 -8 65 -11 83 -2 17 -6 47 -8
65 -15 110 -18 135 -22 157 -2 14 -6 45 -9 70 -3 25 -8 54 -10 66 -3 12 -7 39
-10 60 -3 21 -10 64 -15 94 -5 30 -12 71 -15 90 -3 19 -12 71 -20 115 -8 44
-17 96 -20 115 -3 19 -10 54 -16 78 -5 23 -12 59 -15 80 -3 20 -14 78 -24 127
-11 50 -22 102 -25 118 -10 55 -17 83 -36 167 -12 47 -23 94 -25 105 -4 18
-69 289 -78 326 -2 8 -12 47 -21 85 -9 38 -23 89 -31 114 -7 25 -29 104 -49
175 -106 383 -280 900 -431 1285 -61 153 -185 453 -204 489 -4 9 -23 50 -41
91 -75 172 -288 608 -367 753 -16 28 -48 87 -71 129 -73 136 -203 359 -321
553 -151 249 -494 745 -666 965 -162 206 -424 526 -489 596 -5 6 -44 48 -85
94 -248 274 -522 549 -830 830 -78 72 -272 238 -360 310 -30 25 -64 52 -75 62
-11 9 -51 41 -90 72 -38 31 -74 59 -80 64 -213 172 -757 550 -1000 695 -11 7
-38 24 -60 38 -54 35 -380 224 -480 279 -395 214 -734 377 -1125 542 -91 38
-174 73 -185 78 -30 14 -233 91 -380 145 -71 26 -139 51 -150 56 -161 71
-1238 385 -1448 423 -15 2 -35 7 -45 10 -9 3 -28 7 -42 10 -14 2 -43 9 -65 14
-22 6 -51 13 -65 16 -14 3 -36 8 -50 11 -14 3 -36 7 -50 10 -14 3 -34 7 -45 9
-48 10 -273 56 -300 60 -16 3 -82 15 -145 27 -63 11 -127 22 -142 24 -15 2
-35 6 -45 9 -10 3 -40 7 -66 10 -27 3 -52 8 -55 10 -4 2 -32 7 -63 10 -31 4
-65 8 -75 10 -52 10 -113 19 -144 22 -19 2 -53 6 -75 9 -52 8 -79 12 -140 20
-27 3 -61 8 -75 10 -25 3 -121 15 -170 20 -38 4 -150 16 -190 20 -19 2 -64 7
-100 10 -36 3 -81 8 -100 10 -19 2 -71 7 -115 10 -44 3 -102 8 -130 10 -27 2
-90 7 -140 10 -49 3 -112 8 -140 10 -27 2 -108 7 -180 11 -71 3 -159 8 -195
10 -83 5 -1307 14 -1311 10z m1181 -2010 c36 -2 128 -7 205 -11 77 -3 160 -8
185 -10 25 -2 83 -6 130 -10 85 -5 165 -12 250 -20 25 -2 77 -7 115 -10 39 -3
81 -8 95 -10 14 -2 57 -6 95 -10 39 -4 84 -8 100 -10 79 -10 131 -16 174 -20
25 -3 57 -7 71 -10 14 -2 45 -7 70 -10 25 -3 56 -8 70 -10 14 -2 45 -7 70 -10
25 -3 83 -12 130 -20 47 -8 99 -16 115 -18 17 -3 57 -10 90 -16 33 -6 74 -13
90 -16 116 -19 277 -51 440 -86 105 -23 197 -42 205 -44 91 -19 550 -138 660
-171 564 -171 953 -311 1370 -494 329 -144 580 -269 895 -444 147 -82 182
-103 400 -236 78 -48 447 -291 455 -300 3 -3 37 -28 75 -55 39 -27 72 -53 73
-57 2 -4 10 -8 18 -8 8 0 14 -3 14 -7 0 -5 17 -19 38 -33 20 -14 42 -29 48
-35 6 -5 26 -21 44 -35 114 -85 430 -345 516 -425 6 -5 53 -48 105 -95 229
-208 580 -572 794 -823 140 -165 259 -314 394 -497 67 -91 128 -172 134 -180
22 -27 284 -424 334 -505 228 -367 490 -860 648 -1220 7 -16 25 -57 40 -90 15
-33 54 -125 87 -205 32 -80 63 -154 68 -165 5 -11 28 -69 50 -130 22 -60 44
-117 47 -125 3 -8 7 -19 9 -25 1 -5 30 -86 62 -180 72 -205 177 -529 188 -580
1 -5 10 -37 20 -70 10 -33 19 -64 20 -70 1 -5 11 -45 23 -88 62 -218 174 -703
207 -887 2 -14 9 -45 14 -70 5 -25 14 -72 20 -105 6 -33 13 -73 15 -90 10 -54
24 -139 29 -170 23 -142 36 -228 41 -270 3 -27 8 -60 11 -73 2 -12 7 -44 10
-70 3 -26 7 -58 9 -72 2 -14 7 -50 10 -80 3 -30 8 -71 10 -90 3 -19 7 -60 10
-90 3 -30 7 -71 10 -90 8 -61 19 -182 30 -330 3 -41 8 -100 10 -130 11 -131
22 -331 31 -545 14 -338 8 -1139 -10 -1355 -2 -25 -7 -90 -10 -145 -4 -55 -8
-116 -11 -135 -2 -19 -6 -69 -10 -110 -3 -41 -7 -86 -9 -100 -3 -14 -7 -55
-11 -92 -3 -37 -8 -77 -10 -90 -2 -13 -7 -45 -10 -73 -8 -71 -35 -270 -41
-297 -2 -13 -7 -41 -10 -63 -6 -53 -14 -96 -19 -115 -2 -8 -7 -33 -10 -55 -6
-43 -8 -58 -25 -140 -5 -27 -12 -66 -15 -85 -24 -141 -163 -735 -205 -870 -6
-19 -13 -44 -15 -55 -3 -11 -16 -58 -30 -105 -15 -47 -39 -128 -55 -180 -112
-369 -318 -914 -471 -1247 l-38 -83 -73 7 c-40 4 -138 6 -218 6 -517 -4 -569
-3 -675 13 -113 17 -222 56 -298 108 -21 14 -40 26 -42 26 -3 0 -13 6 -22 14
-119 95 -218 189 -576 550 -512 516 -562 568 -757 786 -41 47 -95 107 -120
134 -83 93 -117 131 -220 246 -57 63 -119 133 -139 155 -117 130 -475 553
-641 760 -58 72 -107 132 -110 135 -14 14 -459 576 -549 694 -168 220 -512
635 -656 792 -5 6 -48 53 -95 104 -284 314 -518 556 -975 1014 -506 508 -676
661 -1000 906 -82 62 -223 173 -312 246 -496 408 -726 536 -1081 603 -93 18
-119 19 -372 7 -122 -5 -242 33 -262 83 -6 14 -12 65 -14 112 -6 148 39 261
182 459 261 362 389 598 433 801 37 169 36 356 -4 579 -21 119 -112 397 -195
595 -69 167 -85 199 -204 440 -184 373 -261 559 -281 675 -3 19 -8 43 -11 52
-12 40 -10 185 3 242 41 178 179 304 405 370 119 34 178 41 363 41 211 0 345
-17 550 -70 396 -102 624 -241 973 -593 286 -289 433 -512 526 -794 19 -59 42
-143 50 -185 9 -43 19 -89 21 -103 3 -14 8 -43 11 -65 3 -22 7 -49 9 -60 26
-127 26 -804 0 -930 -3 -11 -7 -51 -10 -90 -3 -38 -7 -81 -9 -95 -3 -14 -7
-50 -11 -81 -3 -31 -7 -65 -9 -75 -3 -17 -8 -54 -22 -154 -3 -19 -11 -73 -19
-120 -8 -47 -16 -101 -19 -120 -3 -19 -9 -56 -14 -82 -5 -27 -6 -48 -3 -48 12
0 96 56 134 90 89 78 185 235 256 419 38 100 129 447 147 566 3 22 8 43 10 46
3 5 18 92 30 174 3 17 9 53 14 80 5 28 12 77 15 110 4 33 9 75 11 93 21 136
27 653 10 767 -4 22 -13 83 -21 135 -8 52 -17 105 -20 118 -3 12 -7 30 -9 40
-75 334 -351 894 -604 1227 -107 140 -340 348 -495 441 -27 16 -61 36 -76 45
-51 31 -186 97 -261 129 -41 17 -84 35 -95 41 -59 27 -349 113 -425 125 -19 3
-38 8 -42 10 -10 6 -256 51 -319 58 -31 4 -65 8 -75 10 -11 2 -50 7 -89 11
-38 4 -83 8 -100 10 -32 4 -232 17 -307 19 -26 1 -50 5 -54 9 -15 14 59 152
135 252 37 48 177 210 225 261 6 6 31 36 56 65 179 214 373 396 551 517 177
120 437 230 654 278 38 8 140 26 170 30 175 22 241 26 422 26 l173 -1 -20 37
c-28 53 -49 75 -114 121 -81 56 -254 125 -366 146 -14 2 -50 9 -80 15 -179 34
-445 34 -665 0 -92 -14 -208 -38 -270 -57 -91 -27 -270 -86 -280 -92 -5 -3
-14 -6 -20 -7 -21 -4 -165 -68 -294 -130 -297 -144 -562 -313 -841 -537 -152
-122 -239 -176 -322 -199 l-57 -16 -5 26 c-3 15 -8 72 -11 127 -4 55 -8 114
-10 130 -1 17 -6 63 -10 104 -3 41 -8 88 -10 105 -2 17 -7 56 -10 86 -4 30 -8
66 -10 80 -2 14 -7 48 -10 75 -9 71 -15 112 -41 255 -3 19 -7 49 -10 65 -2 17
-8 53 -14 80 -6 28 -12 61 -15 75 -3 14 -7 36 -10 50 -3 14 -7 34 -9 45 -2 11
-9 40 -16 65 -7 25 -14 56 -17 69 -23 128 -131 473 -209 666 -51 128 -180 390
-229 465 -24 37 -30 42 -33 25 -2 -11 -33 -61 -67 -112 -74 -107 -105 -164
-147 -276 -159 -426 -292 -968 -393 -1597 -19 -114 -35 -224 -40 -269 -4 -30
-8 -61 -10 -70 -5 -29 -25 -193 -41 -336 -3 -33 -8 -62 -10 -64 -7 -7 -182 86
-309 163 -515 316 -651 386 -878 451 -175 50 -397 71 -547 51 -68 -10 -123
-18 -145 -23 -11 -2 -43 -8 -72 -14 -284 -55 -741 -241 -975 -398 -114 -76
-251 -198 -282 -251 -18 -31 -18 -32 0 -27 32 10 173 32 266 43 29 3 64 7 78
10 68 11 258 18 465 18 312 0 453 -15 695 -71 233 -55 445 -166 550 -286 68
-79 127 -205 133 -283 2 -26 0 -28 -43 -27 -43 0 -209 12 -240 18 -8 1 -44 6
-80 10 -36 4 -74 9 -85 11 -11 1 -45 5 -75 8 -30 3 -84 9 -120 12 -186 19
-432 4 -630 -38 -237 -50 -516 -170 -730 -313 -63 -42 -117 -80 -120 -84 -3
-4 -12 -12 -21 -17 -50 -28 -337 -301 -419 -399 -99 -116 -207 -269 -325 -455
-88 -140 -256 -486 -330 -680 -18 -47 -36 -94 -40 -105 -5 -11 -9 -22 -10 -25
-1 -3 -18 -57 -38 -120 -33 -106 -50 -166 -63 -230 -2 -14 -7 -33 -10 -42 -7
-24 -27 -129 -40 -212 -3 -21 -7 -47 -9 -57 -2 -10 -7 -49 -10 -86 -4 -37 -9
-76 -11 -85 -10 -54 -18 -225 -18 -378 -1 -208 9 -339 40 -519 32 -189 104
-432 166 -556 71 -141 168 -254 260 -301 26 -13 50 -24 54 -24 13 0 -6 155
-30 245 -13 50 -38 144 -56 210 -17 66 -33 129 -36 140 -29 142 -19 473 21
675 3 14 7 36 10 50 62 328 239 750 449 1070 117 177 333 456 440 568 155 162
470 315 836 408 113 28 112 28 180 39 25 4 53 9 62 10 9 2 49 6 90 10 40 3 96
8 123 11 77 7 360 7 460 0 420 -31 705 -169 804 -388 34 -75 39 -91 47 -149
16 -117 7 -219 -30 -374 -26 -104 -100 -355 -116 -390 -36 -80 -202 -621 -217
-705 -2 -14 -6 -33 -9 -42 -3 -9 -6 -25 -8 -35 -38 -212 -44 -282 -41 -463 2
-91 5 -176 9 -190 3 -14 8 -41 10 -60 14 -108 88 -339 138 -429 66 -119 88
-156 149 -246 86 -127 153 -217 255 -338 147 -177 198 -292 198 -447 0 -47 -6
-110 -12 -141 -11 -49 -16 -57 -45 -66 -32 -12 -212 -61 -245 -68 -9 -2 -55
-13 -102 -25 -47 -12 -96 -24 -109 -26 -115 -22 -364 -101 -467 -150 -171 -80
-475 -282 -667 -444 -332 -279 -630 -569 -1062 -1035 -317 -342 -474 -505
-990 -1030 -160 -162 -565 -581 -634 -655 -18 -19 -74 -79 -125 -134 -50 -54
-107 -115 -126 -136 -60 -65 -226 -243 -256 -276 -16 -17 -70 -76 -121 -130
-50 -55 -104 -112 -119 -129 -26 -28 -146 -159 -295 -319 -36 -39 -96 -105
-135 -146 -38 -42 -116 -127 -174 -189 -58 -63 -112 -122 -120 -131 -8 -9 -51
-56 -95 -104 -44 -49 -89 -98 -100 -110 -11 -12 -59 -65 -106 -117 -48 -52
-111 -121 -140 -153 -30 -33 -61 -67 -69 -76 -8 -9 -49 -54 -90 -100 -41 -47
-77 -87 -80 -90 -9 -9 -194 -214 -260 -289 -36 -40 -74 -83 -85 -96 -24 -26
-42 -47 -160 -185 -50 -58 -94 -110 -100 -116 -5 -6 -35 -40 -65 -75 -86 -100
-358 -369 -435 -431 -119 -95 -264 -187 -400 -253 -187 -91 -297 -127 -630
-205 -49 -12 -99 -24 -110 -26 -11 -3 -31 -7 -45 -10 -74 -15 -222 -58 -390
-115 -63 -22 -119 -39 -126 -39 -20 0 -260 502 -385 805 -51 122 -61 148 -79
188 -51 115 -206 547 -272 757 -41 132 -99 322 -104 340 -2 8 -17 65 -34 125
-44 163 -126 495 -150 614 -12 58 -23 107 -24 110 -2 3 -7 28 -10 55 -4 27 -9
52 -11 55 -1 3 -6 22 -9 41 -3 19 -13 73 -21 120 -9 47 -18 94 -19 105 -2 11
-6 38 -10 60 -3 23 -8 50 -10 61 -2 11 -8 47 -12 79 -4 33 -9 62 -9 65 -1 3
-5 32 -9 65 -5 33 -10 69 -12 80 -3 11 -7 45 -9 75 -3 30 -7 66 -10 80 -2 14
-7 52 -10 85 -4 33 -8 71 -10 85 -2 14 -7 59 -10 100 -4 41 -8 89 -10 105 -2
17 -6 75 -10 130 -4 55 -9 120 -11 145 -25 304 -24 1271 1 1495 3 22 7 81 10
130 3 50 8 108 10 130 3 22 7 69 10 105 3 36 7 81 9 100 3 19 7 60 11 90 6 60
32 264 41 320 2 19 9 67 15 105 10 76 17 116 24 155 3 14 7 41 10 60 5 31 30
171 41 225 2 11 8 45 14 75 6 30 12 66 15 80 12 65 97 428 124 535 18 66 33
127 35 135 75 293 298 977 377 1155 4 11 22 56 40 100 17 44 36 94 43 110 7
17 22 53 34 80 110 263 339 747 447 945 23 41 60 109 82 150 155 287 511 858
652 1046 9 12 23 32 31 44 64 94 245 337 354 474 96 122 113 142 225 275 133
160 181 214 351 401 118 131 563 576 690 692 52 47 120 108 150 136 30 27 75
66 100 87 25 21 47 40 50 44 7 10 271 226 380 313 365 288 849 621 1218 839
15 9 74 44 130 77 57 34 106 62 109 62 2 0 35 17 71 39 330 190 892 458 1292
616 80 31 154 61 165 66 11 5 90 34 175 65 363 131 702 236 1060 329 124 32
499 118 560 129 14 2 59 11 100 20 41 8 130 25 197 36 67 11 132 23 145 25 13
3 43 8 68 11 25 3 54 8 65 10 10 2 37 6 60 9 48 6 114 16 135 20 8 2 44 6 80
10 36 4 72 9 81 10 9 2 52 6 95 10 43 3 86 8 94 10 8 2 51 7 95 10 44 4 91 8
105 10 14 2 70 7 125 10 55 4 116 9 135 11 19 1 116 6 215 10 99 3 181 7 183
9 4 4 979 -4 1052 -9z m1645 -10746 c45 -21 145 -78 155 -90 13 -14 376 -269
500 -350 82 -54 410 -289 545 -390 384 -287 607 -492 896 -820 353 -401 415
-464 754 -776 152 -140 162 -149 285 -269 145 -142 218 -219 304 -320 100
-116 107 -125 146 -175 19 -25 41 -52 47 -60 7 -8 63 -80 125 -160 275 -353
273 -351 809 -891 608 -611 973 -987 1269 -1309 18 -19 58 -62 89 -96 59 -64
216 -235 241 -264 8 -9 44 -50 80 -90 36 -40 75 -85 88 -99 217 -244 325 -397
438 -626 175 -352 261 -616 222 -689 -11 -20 -206 -285 -218 -296 -3 -3 -37
-45 -75 -95 -38 -49 -74 -95 -80 -101 -5 -6 -26 -30 -45 -54 -112 -140 -354
-420 -455 -525 -16 -18 -46 -50 -66 -71 -47 -53 -133 -122 -232 -187 -285
-187 -603 -245 -915 -167 -268 67 -946 528 -1386 941 -229 215 -514 516 -741
784 -27 32 -55 63 -60 69 -12 12 -304 371 -350 430 -16 21 -60 78 -98 125
-144 184 -146 186 -398 516 -46 61 -87 115 -92 120 -4 6 -49 64 -99 130 -82
107 -382 495 -414 535 -7 8 -63 78 -125 155 -281 348 -457 539 -674 730 -149
131 -336 325 -397 410 -117 166 -191 356 -216 554 -13 110 -6 415 13 561 5 36
13 102 20 155 11 82 15 112 19 135 3 14 7 43 11 65 3 22 7 54 10 70 5 35 11
79 20 150 4 28 8 61 11 75 28 164 25 595 -5 733 -5 23 -12 58 -15 77 -4 27
-71 298 -111 450 -59 226 -128 525 -140 610 -4 24 -9 48 -11 52 -13 21 -12
187 1 235 36 125 174 170 320 103z m-3881 -205 c108 -29 179 -120 212 -275 18
-83 24 -319 11 -455 -11 -114 -19 -188 -22 -205 -2 -8 -6 -44 -10 -80 -3 -36
-8 -76 -10 -90 -7 -46 -25 -194 -31 -260 -3 -36 -7 -81 -10 -100 -6 -54 -5
-289 1 -340 10 -77 35 -254 40 -280 3 -14 7 -36 10 -50 2 -14 7 -41 10 -60 3
-19 17 -84 31 -145 14 -60 28 -121 30 -135 3 -14 27 -90 53 -170 79 -236 95
-311 95 -430 1 -95 -2 -113 -33 -195 -19 -49 -58 -139 -86 -200 -29 -60 -62
-132 -75 -160 -91 -205 -207 -417 -319 -585 -61 -90 -159 -229 -171 -240 -3
-3 -19 -23 -35 -45 -27 -37 -216 -266 -240 -291 -5 -6 -39 -43 -75 -83 -90
-101 -93 -105 -200 -221 -52 -56 -103 -112 -113 -124 -10 -12 -33 -37 -50 -56
-79 -87 -186 -207 -204 -230 -12 -14 -45 -54 -75 -90 -151 -181 -262 -335
-437 -605 -163 -251 -313 -475 -370 -553 -50 -68 -265 -344 -305 -389 -13 -16
-45 -53 -71 -83 -172 -199 -359 -389 -1101 -1116 -563 -552 -585 -573 -914
-864 -40 -36 -81 -72 -90 -80 -100 -86 -138 -117 -237 -197 -193 -154 -358
-254 -476 -288 l-57 -17 -73 55 c-277 209 -589 470 -872 730 -301 277 -787
786 -1001 1047 -33 40 -129 157 -140 170 -11 13 -8 36 11 125 90 418 182 692
341 1007 144 288 284 518 480 790 125 173 352 455 464 577 14 15 48 54 77 87
29 34 65 74 80 91 15 17 60 66 99 109 40 44 88 97 109 119 21 22 58 63 83 90
60 65 128 139 287 310 155 168 830 843 1004 1005 68 63 145 135 171 160 26 25
72 67 101 94 30 28 83 77 119 110 83 77 287 266 321 297 15 13 64 58 109 99
45 41 94 86 109 99 37 35 228 211 266 246 17 17 58 55 91 85 32 29 120 111
194 181 74 70 149 139 165 154 25 23 300 289 625 605 62 60 129 124 291 275
35 33 116 105 179 159 63 54 126 108 140 120 115 99 370 286 507 373 51 32
160 101 241 155 253 164 382 223 537 247 28 4 59 12 70 18 20 12 90 11 139 -2z
m2210 -4546 c68 -64 191 -205 248 -284 4 -5 18 -23 31 -40 37 -48 120 -169
341 -498 113 -169 211 -313 216 -320 6 -7 40 -52 76 -102 176 -239 341 -403
529 -526 94 -62 183 -118 225 -141 25 -14 122 -70 215 -125 94 -55 181 -106
194 -114 14 -8 30 -17 35 -22 6 -4 67 -44 136 -88 69 -45 203 -136 299 -203
95 -66 199 -138 230 -160 31 -21 79 -55 106 -76 28 -20 104 -77 170 -125 113
-84 397 -300 440 -337 11 -9 94 -76 185 -149 91 -73 170 -138 176 -143 6 -6
30 -27 54 -46 24 -19 91 -75 149 -124 58 -49 128 -107 156 -130 408 -339 587
-583 670 -915 33 -130 40 -200 39 -376 0 -194 -9 -273 -51 -445 -96 -399 -319
-701 -566 -766 -82 -22 -223 -26 -321 -8 -212 37 -380 102 -1004 390 -41 19
-75 34 -77 34 -13 0 -394 187 -455 222 -76 45 -215 132 -220 138 -3 4 -30 25
-61 47 -61 45 -188 151 -259 217 -25 22 -74 66 -110 96 -36 30 -67 57 -70 61
-14 15 -173 141 -235 185 -141 101 -254 160 -450 232 -165 62 -444 134 -604
158 -20 3 -43 7 -51 9 -8 2 -42 7 -75 11 -33 3 -68 8 -77 10 -116 21 -545 22
-653 0 -11 -2 -40 -7 -65 -10 -25 -3 -56 -8 -70 -11 -14 -3 -34 -7 -45 -9
-166 -34 -509 -173 -675 -274 -19 -12 -42 -25 -50 -29 -60 -28 -312 -198 -620
-418 -162 -117 -358 -254 -435 -305 -77 -51 -214 -146 -304 -209 -89 -64 -173
-123 -185 -131 -75 -51 -239 -180 -350 -274 -207 -175 -226 -190 -316 -249
-76 -49 -217 -125 -237 -128 -9 -2 -22 -6 -128 -49 -86 -35 -87 -35 -215 -75
-253 -78 -489 -81 -817 -11 -40 9 -87 18 -105 21 -18 3 -76 16 -128 29 -212
53 -318 131 -364 272 -23 72 -30 132 -30 259 0 140 9 232 34 360 6 28 12 59
14 70 14 75 56 200 100 299 28 62 129 240 159 280 4 6 25 34 45 61 85 115 202
249 377 431 178 185 247 258 315 334 41 47 82 92 90 100 8 8 49 53 90 100 67
76 205 217 942 960 197 199 318 313 393 371 17 13 36 30 44 37 7 7 59 49 115
94 55 45 106 86 111 92 6 6 33 29 60 51 28 21 52 42 55 45 3 3 30 25 60 50 30
25 66 54 80 67 35 30 177 150 235 198 27 22 55 46 62 54 8 7 33 29 56 48 23
19 67 56 97 83 147 127 226 196 240 210 9 8 32 29 51 45 35 31 195 172 215
190 6 6 52 47 102 93 50 46 101 93 114 104 13 11 48 43 78 71 57 54 126 112
340 287 154 125 223 191 310 295 70 84 89 111 245 350 116 177 212 305 231
305 7 0 51 -37 98 -81z m9578 -1237 c-18 -43 -106 -202 -113 -202 -15 0 -39
81 -34 113 11 60 44 93 110 107 37 8 46 4 37 -18z m-357 -287 c45 -16 155 -79
155 -89 0 -2 -30 -54 -66 -116 -72 -123 -65 -120 -130 -55 -82 83 -163 252
-136 280 11 11 123 -2 177 -20z m-19775 -134 c0 -60 -28 -173 -41 -169 -5 2
-31 41 -58 88 -56 96 -57 92 25 140 44 26 50 27 62 12 6 -9 12 -41 12 -71z
m19332 -57 c131 -66 274 -179 332 -263 l28 -41 -33 -52 c-52 -83 -141 -223
-145 -227 -7 -8 -71 43 -104 85 -44 56 -71 104 -99 179 -26 70 -66 237 -75
312 -6 52 -6 53 18 43 14 -5 49 -21 78 -36z m-18965 -151 c20 -49 20 -152 0
-221 -24 -79 -108 -225 -121 -211 -2 2 -42 64 -89 138 l-86 134 41 36 c46 42
218 161 230 161 5 0 16 -17 25 -37z m518 -243 c0 -191 -17 -304 -77 -510 -31
-105 -106 -310 -114 -310 -6 0 -265 354 -297 407 -4 7 7 32 26 60 19 26 54 82
77 123 96 166 184 266 293 333 92 56 92 56 92 -103z"/>
</g>
</svg>
